<svg version="1.1" viewBox="0.0 0.0 512.0 512.0" fill="none" stroke="none" stroke-linecap="square" stroke-miterlimit="10" xmlns:xlink="http://www.w3.org/1999/xlink" xmlns="http://www.w3.org/2000/svg"><clipPath id="p.0"><path d="m0 0l512.0 0l0 512.0l-512.0 0l0 -512.0z" clip-rule="nonzero"/></clipPath><g clip-path="url(#p.0)"><path fill="#000000" fill-opacity="0.0" d="m0 0l512.0 0l0 512.0l-512.0 0z" fill-rule="evenodd"/><path fill="#ffffff" d="m53.702118 115.104996l279.48032 -0.043510437l0 -85.87482l125.1181 125.098625l-125.1181 125.13759l0 -85.8748l-279.48032 0.043502808z" fill-rule="evenodd"/><path stroke="#ffffff" stroke-width="1.0" stroke-linejoin="round" stroke-linecap="butt" d="m53.702118 115.104996l279.48032 -0.043510437l0 -85.87482l125.1181 125.098625l-125.1181 125.13759l0 -85.8748l-279.48032 0.043502808z" fill-rule="evenodd"/><path fill="#ffffff" d="m458.2979 389.21625l-279.48032 0.043518066l0 85.87482l-125.1181 -125.09863l125.1181 -125.13759l0 85.87483l279.48032 -0.043518066z" fill-rule="evenodd"/><path stroke="#ffffff" stroke-width="1.0" stroke-linejoin="round" stroke-linecap="butt" d="m458.2979 389.21625l-279.48032 0.043518066l0 85.87482l-125.1181 -125.09863l125.1181 -125.13759l0 85.87483l279.48032 -0.043518066z" fill-rule="evenodd"/></g></svg>