<svg version="1.1" viewBox="0.0 0.0 512.0 512.0" fill="none" stroke="none" stroke-linecap="square" stroke-miterlimit="10" xmlns:xlink="http://www.w3.org/1999/xlink" xmlns="http://www.w3.org/2000/svg"><clipPath id="p.0"><path d="m0 0l512.0 0l0 512.0l-512.0 0l0 -512.0z" clip-rule="nonzero"/></clipPath><g clip-path="url(#p.0)"><path fill="#000000" fill-opacity="0.0" d="m0 0l512.0 0l0 512.0l-512.0 0z" fill-rule="evenodd"/><path fill="#ffffff" d="m20.706038 133.73228l158.20473 0l0 244.53545l-158.20473 0z" fill-rule="evenodd"/><path stroke="#ffffff" stroke-width="1.0" stroke-linejoin="round" stroke-linecap="butt" d="m20.706038 133.73228l158.20473 0l0 244.53545l-158.20473 0z" fill-rule="evenodd"/><path fill="#ffffff" d="m244.22572 492.04724l-204.66142 -236.04724l204.66142 -236.04724z" fill-rule="evenodd"/><path stroke="#ffffff" stroke-width="1.0" stroke-linejoin="round" stroke-linecap="butt" d="m244.22572 492.04724l-204.66142 -236.04724l204.66142 -236.04724z" fill-rule="evenodd"/><path fill="#ffffff" d="m244.22572 19.952755l46.67717 0l0 472.09448l-46.67717 0z" fill-rule="evenodd"/><path stroke="#ffffff" stroke-width="1.0" stroke-linejoin="round" stroke-linecap="butt" d="m244.22572 19.952755l46.67717 0l0 472.09448l-46.67717 0z" fill-rule="evenodd"/><path fill="#ffffff" d="m321.73676 209.64012l33.007874 -33.007874l125.73227 125.732285l-33.007874 33.007874z" fill-rule="evenodd"/><path stroke="#ffffff" stroke-width="1.0" stroke-linejoin="round" stroke-linecap="butt" d="m321.73676 209.64012l33.007874 -33.007874l125.73227 125.732285l-33.007874 33.007874z" fill-rule="evenodd"/><path fill="#ffffff" d="m447.46902 176.627l33.007874 33.007874l-125.73227 125.732285l-33.007874 -33.007874z" fill-rule="evenodd"/><path stroke="#ffffff" stroke-width="1.0" stroke-linejoin="round" stroke-linecap="butt" d="m447.46902 176.627l33.007874 33.007874l-125.73227 125.732285l-33.007874 -33.007874z" fill-rule="evenodd"/></g></svg>