<svg version="1.1" viewBox="0.0 0.0 19351.181102362203 19351.181102362203" fill="none" stroke="none" stroke-linecap="square" stroke-miterlimit="10" xmlns:xlink="http://www.w3.org/1999/xlink" xmlns="http://www.w3.org/2000/svg"><clipPath id="p.0"><path d="m0 0l19351.182 0l0 19351.182l-19351.182 0l0 -19351.182z" clip-rule="nonzero"/></clipPath><g clip-path="url(#p.0)"><path fill="#000000" fill-opacity="0.0" d="m0 0l19351.182 0l0 19351.182l-19351.182 0z" fill-rule="evenodd"/><path fill="#ffffff" d="m955.91077 5736.1416l5949.7637 0l0 7878.8975l-5949.7637 0z" fill-rule="evenodd"/><path stroke="#ffffff" stroke-width="1.0" stroke-linejoin="round" stroke-linecap="butt" d="m955.91077 5736.1416l5949.7637 0l0 7878.8975l-5949.7637 0z" fill-rule="evenodd"/><path fill="#ffffff" d="m9967.205 1198.6182l1126.4121 0l0 16953.945l-1184.1758 0l-8664.709 -8578.06z" fill-rule="evenodd"/><path stroke="#ffffff" stroke-width="1.0" stroke-linejoin="round" stroke-linecap="butt" d="m9967.205 1198.6182l1126.4121 0l0 16953.945l-1184.1758 0l-8664.709 -8578.06z" fill-rule="evenodd"/><path fill="#ffffff" d="m12075.617 6310.7876l1559.6533 0l0 6729.606l-1559.6533 0z" fill-rule="evenodd"/><path stroke="#ffffff" stroke-width="1.0" stroke-linejoin="round" stroke-linecap="butt" d="m12075.617 6310.7876l1559.6533 0l0 6729.606l-1559.6533 0z" fill-rule="evenodd"/><path fill="#ffffff" d="m14200.031 4862.4414l1559.6533 0l0 9626.299l-1559.6533 0z" fill-rule="evenodd"/><path stroke="#ffffff" stroke-width="1.0" stroke-linejoin="round" stroke-linecap="butt" d="m14200.031 4862.4414l1559.6533 0l0 9626.299l-1559.6533 0z" fill-rule="evenodd"/><path fill="#ffffff" d="m16324.446 3329.5764l1559.6533 0l0 12692.031l-1559.6533 0z" fill-rule="evenodd"/><path stroke="#ffffff" stroke-width="1.0" stroke-linejoin="round" stroke-linecap="butt" d="m16324.446 3329.5764l1559.6533 0l0 12692.031l-1559.6533 0z" fill-rule="evenodd"/></g></svg>