<svg version="1.1" viewBox="0.0 0.0 512.0 512.0" fill="none" stroke="none" stroke-linecap="square" stroke-miterlimit="10" xmlns:xlink="http://www.w3.org/1999/xlink" xmlns="http://www.w3.org/2000/svg"><clipPath id="p.0"><path d="m0 0l512.0 0l0 512.0l-512.0 0l0 -512.0z" clip-rule="nonzero"/></clipPath><g clip-path="url(#p.0)"><path fill="#000000" fill-opacity="0.0" d="m0 0l512.0 0l0 512.0l-512.0 0z" fill-rule="evenodd"/><path fill="#ffffff" d="m20.706038 133.73228l158.20473 0l0 244.53545l-158.20473 0z" fill-rule="evenodd"/><path stroke="#ffffff" stroke-width="1.0" stroke-linejoin="round" stroke-linecap="butt" d="m20.706038 133.73228l158.20473 0l0 244.53545l-158.20473 0z" fill-rule="evenodd"/><path fill="#ffffff" d="m244.22572 492.04724l-204.66142 -236.04724l204.66142 -236.04724z" fill-rule="evenodd"/><path stroke="#ffffff" stroke-width="1.0" stroke-linejoin="round" stroke-linecap="butt" d="m244.22572 492.04724l-204.66142 -236.04724l204.66142 -236.04724z" fill-rule="evenodd"/><path fill="#ffffff" d="m244.22572 19.952755l46.67717 0l0 472.09448l-46.67717 0z" fill-rule="evenodd"/><path stroke="#ffffff" stroke-width="1.0" stroke-linejoin="round" stroke-linecap="butt" d="m244.22572 19.952755l46.67717 0l0 472.09448l-46.67717 0z" fill-rule="evenodd"/><path fill="#ffffff" d="m309.13123 167.10236l46.677185 0l0 177.79529l-46.677185 0z" fill-rule="evenodd"/><path stroke="#ffffff" stroke-width="1.0" stroke-linejoin="round" stroke-linecap="butt" d="m309.13123 167.10236l46.677185 0l0 177.79529l-46.677185 0z" fill-rule="evenodd"/><path fill="#ffffff" d="m369.2638 117.637794l46.677155 0l0 276.72443l-46.677155 0z" fill-rule="evenodd"/><path stroke="#ffffff" stroke-width="1.0" stroke-linejoin="round" stroke-linecap="butt" d="m369.2638 117.637794l46.677155 0l0 276.72443l-46.677155 0z" fill-rule="evenodd"/></g></svg>