<svg version="1.1" viewBox="0.0 0.0 512.0 512.0" fill="none" stroke="none" stroke-linecap="square" stroke-miterlimit="10" xmlns:xlink="http://www.w3.org/1999/xlink" xmlns="http://www.w3.org/2000/svg"><clipPath id="p.0"><path d="m0 0l512.0 0l0 512.0l-512.0 0l0 -512.0z" clip-rule="nonzero"/></clipPath><g clip-path="url(#p.0)"><path fill="#000000" fill-opacity="0.0" d="m0 0l512.0 0l0 512.0l-512.0 0z" fill-rule="evenodd"/><path fill="#000000" d="m14.35958 316.9134l113.77953 -121.82678l113.779526 121.82678z" fill-rule="evenodd"/><path stroke="#000000" stroke-width="1.0" stroke-linejoin="round" stroke-linecap="butt" d="m14.35958 316.9134l113.77953 -121.82678l113.779526 121.82678z" fill-rule="evenodd"/><path fill="#000000" d="m72.396324 293.7349l111.49607 0l0 203.90552l-111.49607 0z" fill-rule="evenodd"/><path stroke="#000000" stroke-width="1.0" stroke-linejoin="round" stroke-linecap="butt" d="m72.396324 293.7349l111.49607 0l0 203.90552l-111.49607 0z" fill-rule="evenodd"/><path fill="#000000" d="m386.1391 14.346457l111.49606 0l0 483.30707l-111.49606 0z" fill-rule="evenodd"/><path stroke="#000000" stroke-width="1.0" stroke-linejoin="round" stroke-linecap="butt" d="m386.1391 14.346457l111.49606 0l0 483.30707l-111.49606 0z" fill-rule="evenodd"/><path fill="#000000" d="m155.5643 497.66666l0 -111.49606l271.84253 0l0 111.49606z" fill-rule="evenodd"/><path stroke="#000000" stroke-width="1.0" stroke-linejoin="round" stroke-linecap="butt" d="m155.5643 497.66666l0 -111.49606l271.84253 0l0 111.49606z" fill-rule="evenodd"/><path fill="#000000" d="m105.72179 125.8294l0 -111.49606l315.02362 0l0 111.49606z" fill-rule="evenodd"/><path stroke="#000000" stroke-width="1.0" stroke-linejoin="round" stroke-linecap="butt" d="m105.72179 125.8294l0 -111.49606l315.02362 0l0 111.49606z" fill-rule="evenodd"/><path fill="#000000" d="m72.396324 14.35958l111.49607 0l0 111.49606l-111.49607 0z" fill-rule="evenodd"/><path stroke="#000000" stroke-width="1.0" stroke-linejoin="round" stroke-linecap="butt" d="m72.396324 14.35958l111.49607 0l0 111.49606l-111.49607 0z" fill-rule="evenodd"/></g></svg>