<svg version="1.1" viewBox="0.0 0.0 512.0 512.0" fill="none" stroke="none" stroke-linecap="square" stroke-miterlimit="10" xmlns:xlink="http://www.w3.org/1999/xlink" xmlns="http://www.w3.org/2000/svg"><clipPath id="p.0"><path d="m0 0l512.0 0l0 512.0l-512.0 0l0 -512.0z" clip-rule="nonzero"/></clipPath><g clip-path="url(#p.0)"><path fill="#000000" fill-opacity="0.0" d="m0 0l512.0 0l0 512.0l-512.0 0z" fill-rule="evenodd"/><path fill="#ffffff" d="m492.95746 201.192l0 0c-0.24343872 100.53685 -81.85385 181.88753 -182.39093 181.81056c-100.53711 -0.07696533 -182.02286 -81.55252 -182.11238 -182.0896c-0.089538574 -100.537094 81.250946 -182.15765 181.78777 -182.41368c100.536804 -0.25603294 182.29196 80.94917 182.71448 181.48541l-71.20886 0.29927063c-0.2574463 -61.254715 -50.069214 -110.73142 -111.32428 -110.57543c-61.255066 0.15599823 -110.81419 49.885765 -110.75964 111.141014c0.05455017 61.25525 49.70218 110.89667 110.95743 110.94354c61.25525 0.046905518 110.97882 -49.518433 111.12717 -110.77353z" fill-rule="evenodd"/><path stroke="#ffffff" stroke-width="1.0" stroke-linejoin="round" stroke-linecap="butt" d="m492.95746 201.192l0 0c-0.24343872 100.53685 -81.85385 181.88753 -182.39093 181.81056c-100.53711 -0.07696533 -182.02286 -81.55252 -182.11238 -182.0896c-0.089538574 -100.537094 81.250946 -182.15765 181.78777 -182.41368c100.536804 -0.25603294 182.29196 80.94917 182.71448 181.48541l-71.20886 0.29927063c-0.2574463 -61.254715 -50.069214 -110.73142 -111.32428 -110.57543c-61.255066 0.15599823 -110.81419 49.885765 -110.75964 111.141014c0.05455017 61.25525 49.70218 110.89667 110.95743 110.94354c61.25525 0.046905518 110.97882 -49.518433 111.12717 -110.77353z" fill-rule="evenodd"/><path fill="#ffffff" d="m195.34122 259.6168l59.2126 59.212616l-181.79527 181.79526l-59.2126 -59.212585z" fill-rule="evenodd"/><path stroke="#ffffff" stroke-width="1.0" stroke-linejoin="round" stroke-linecap="butt" d="m195.34122 259.6168l59.2126 59.212616l-181.79527 181.79526l-59.2126 -59.212585z" fill-rule="evenodd"/></g></svg>