<svg version="1.1" viewBox="0.0 0.0 512.0 512.0" fill="none" stroke="none" stroke-linecap="square" stroke-miterlimit="10" xmlns:xlink="http://www.w3.org/1999/xlink" xmlns="http://www.w3.org/2000/svg"><clipPath id="p.0"><path d="m0 0l512.0 0l0 512.0l-512.0 0l0 -512.0z" clip-rule="nonzero"/></clipPath><g clip-path="url(#p.0)"><path fill="#000000" fill-opacity="0.0" d="m0 0l512.0 0l0 512.0l-512.0 0z" fill-rule="evenodd"/><path fill="#ffffff" d="m58.444664 386.5697l289.11713 -289.2136l-60.723083 -60.72306l176.93015 -0.014755249l0.01473999 176.95963l-60.723053 -60.723053l-289.11713 289.21356z" fill-rule="evenodd"/><path stroke="#ffffff" stroke-width="1.0" stroke-linejoin="round" stroke-linecap="butt" d="m58.444664 386.5697l289.11713 -289.2136l-60.723083 -60.72306l176.93015 -0.014755249l0.01473999 176.95963l-60.723053 -60.723053l-289.11713 289.21356z" fill-rule="evenodd"/><path fill="#ffffff" d="m113.88043 51.645817l289.2136 289.11713l60.723053 -60.723053l0.014770508 176.93011l-176.95966 0.014770508l60.723083 -60.723083l-289.2136 -289.11713z" fill-rule="evenodd"/><path stroke="#ffffff" stroke-width="1.0" stroke-linejoin="round" stroke-linecap="butt" d="m113.88043 51.645817l289.2136 289.11713l60.723053 -60.723053l0.014770508 176.93011l-176.95966 0.014770508l60.723083 -60.723083l-289.2136 -289.11713z" fill-rule="evenodd"/></g></svg>